<?xml version="1.0" encoding="utf-8"?>
<!-- Generator: Adobe Illustrator 16.0.0, SVG Export Plug-In . SVG Version: 6.00 Build 0)  -->
<!DOCTYPE svg PUBLIC "-//W3C//DTD SVG 1.1//EN" "http://www.w3.org/Graphics/SVG/1.1/DTD/svg11.dtd">
<svg version="1.1" id="Layer_1" xmlns="http://www.w3.org/2000/svg" xmlns:xlink="http://www.w3.org/1999/xlink" x="0px" y="0px"
	 width="559.98px" height="560px" viewBox="200.01 0 559.98 560" enable-background="new 200.01 0 559.98 560" xml:space="preserve"
	>
<g id="interest-percentage-sign">
	<g>
		<path fill="#673AB7" d="M480.005,560C325.371,560,200.01,434.639,200.01,279.996C200.01,125.362,325.371,0,480.005,0
			S759.99,125.362,759.99,279.996C759.99,434.639,634.639,560,480.005,560z"/>
		<path id="_x32_9" fill="#FFFFFF" d="M533.334,388.571c4.437,2.352,4.292,5.896-0.321,7.873l-61.615,26.467
			c-4.61,1.983-9.152-0.43-10.096-5.36l-12.615-65.86c-0.94-4.927,1.91-7.039,6.342-4.684l21.35,11.332l87.532-189.735
			c1.329-2.877,4.089-3.25,6.14-0.835l17.992,21.235c2.049,2.418,2.625,6.746,1.283,9.614l-82.316,175.981L533.334,388.571z
			 M491.675,200.079l-81.897,176.177c-1.335,2.871-5.021,5.212-8.189,5.197l-27.832-0.134c-3.168-0.02-4.656-2.373-3.307-5.24
			l89.081-189.014l-22.404-9.069c-4.652-1.882-4.867-5.423-0.488-7.869l58.561-32.671c4.384-2.446,9.151-0.518,10.596,4.289
			l19.331,64.212c1.451,4.805-1.172,7.194-5.825,5.308L491.675,200.079z"/>
	</g>
</g>
<g id="Layer_1_1_">
</g>
</svg>
